# xmcd
#
# Track frame offsets:
#	150
#	13525
#	26912
#	39550
#	50275
#	66550
#	82825
#	96475
#	110350
#	121450
#	136150
#	149800
#	165175
#	182200
#	197725
#	217300
#
# Disc length: 3093 seconds
#
# Revision: 0
# Processed by: cddbd v1.5.2PL0 Copyright (c) Steve Scherf et al.
# Submitted via: dBpowerAMP V4.0
#
DISCID=ed0c1310
DTITLE=Markku Aro - Parhaat
DYEAR=1989
DGENRE=Country
TTITLE0=Hyvännäköinen
TTITLE1=Jestas sentään
TTITLE2=Vain eteenpäin
TTITLE3=Oo-mikä nainen
TTITLE4=Loit elämälle pohjaa
TTITLE5=Oma kultasein
TTITLE6=Anna kaikkien kukkien kukkia
TTITLE7=täyttä totta
TTITLE8=Moskiitto
TTITLE9=Kun sä vierelläin sateessa oot
TTITLE10=Käyn uudelleen eiliseen
TTITLE11=Älä lähde rakkain
TTITLE12=Ollaan lähekkäin
TTITLE13=Etsin kunnes löydän sut
TTITLE14=Kaipuu
TTITLE15=Keskiyön aikaan
EXTD=
EXTT0=
EXTT1=
EXTT2=
EXTT3=
EXTT4=
EXTT5=
EXTT6=
EXTT7=
EXTT8=
EXTT9=
EXTT10=
EXTT11=
EXTT12=
EXTT13=
EXTT14=
EXTT15=
PLAYORDER=
